<svg width="28" height="25" viewBox="0 0 28 25" fill="none" xmlns="http://www.w3.org/2000/svg">
<path d="M23.0216 8.07448C22.7236 7.97227 22.4231 7.87755 22.1203 7.79043C22.1712 7.58262 22.218 7.37733 22.2596 7.17564C22.9418 3.86365 22.4958 1.19545 20.9723 0.31695C19.5116 -0.525238 17.1228 0.352934 14.7102 2.45261C14.4724 2.6599 14.2399 2.87318 14.0129 3.09223C13.8609 2.94657 13.7063 2.80374 13.549 2.66381C11.0205 0.418778 8.48608 -0.527425 6.96423 0.35359C5.50484 1.1984 5.0727 3.7067 5.68695 6.84554C5.74807 7.15641 5.81707 7.46568 5.89389 7.77304C5.53514 7.87498 5.18897 7.98348 4.85767 8.09898C1.89317 9.13257 0 10.7523 0 12.4324C0 14.1677 2.03241 15.9081 5.12006 16.9635C5.37039 17.0487 5.6228 17.1276 5.87705 17.2003C5.7945 17.5313 5.72119 17.8646 5.6572 18.1998C5.07161 21.2841 5.52891 23.7332 6.98436 24.5726C8.48761 25.4395 11.0107 24.5485 13.4673 22.401C13.6665 22.2264 13.8614 22.0468 14.0516 21.8625C14.2974 22.0997 14.5498 22.33 14.8085 22.5531C17.1883 24.6008 19.5385 25.4277 20.9926 24.5859C22.4944 23.7165 22.9825 21.0856 22.3488 17.8848C22.2989 17.634 22.2429 17.3845 22.1809 17.1364C22.3581 17.0839 22.532 17.0299 22.7015 16.9737C25.9115 15.9102 28 14.1908 28 12.4324C28 10.7462 26.0457 9.11551 23.0216 8.07448ZM22.3254 15.8384C22.1721 15.889 22.0154 15.938 21.8551 15.9855C21.5007 14.8636 21.0225 13.6708 20.4373 12.4382C20.9957 11.2351 21.4555 10.0574 21.8 8.94292C22.0864 9.02582 22.3643 9.11322 22.6323 9.20542C25.2234 10.0975 26.8039 11.4162 26.8039 12.4324C26.8039 13.5148 25.097 14.9199 22.3254 15.8384ZM21.1754 18.1171C21.4557 19.5324 21.4956 20.8121 21.31 21.8125C21.1433 22.7115 20.8079 23.3107 20.3932 23.5508C19.5109 24.0616 17.6238 23.3977 15.5887 21.6464C15.3481 21.4389 15.1133 21.2248 14.8846 21.0044C15.6737 20.1415 16.4621 19.1384 17.2317 18.0243C18.5853 17.9042 19.8641 17.7078 21.0238 17.4397C21.0811 17.6703 21.1316 17.8961 21.1754 18.1171ZM9.54581 23.4626C8.68372 23.767 7.99706 23.7757 7.58198 23.5364C6.69878 23.027 6.33161 21.0606 6.83244 18.4229C6.89198 18.1112 6.96014 17.8012 7.03686 17.4933C8.18377 17.7471 9.45328 17.9295 10.8101 18.0395C11.5849 19.1297 12.3961 20.1317 13.2137 21.0091C13.0399 21.1772 12.8621 21.341 12.6803 21.5004C11.5939 22.45 10.5052 23.1237 9.54581 23.4626ZM5.50703 15.8317C4.1417 15.365 3.01416 14.7585 2.24131 14.0967C1.54678 13.502 1.19623 12.9115 1.19623 12.4324C1.19623 11.4128 2.71622 10.1124 5.25142 9.2285C5.55909 9.12131 5.88109 9.02014 6.21523 8.9252C6.56567 10.0649 7.02527 11.2565 7.57991 12.4615C7.01805 13.6843 6.55189 14.895 6.19806 16.0481C5.96598 15.9816 5.73557 15.9095 5.50703 15.8317ZM6.86088 6.61575C6.33467 3.92654 6.68412 1.89797 7.56361 1.38882C8.5003 0.846543 10.5716 1.61972 12.7549 3.55828C12.8972 3.68497 13.0373 3.81424 13.175 3.94601C12.3615 4.81959 11.5577 5.81414 10.7897 6.89782C9.47286 7.01989 8.21231 7.21589 7.05337 7.4785C6.98196 7.19262 6.91777 6.90487 6.86088 6.61575ZM18.9388 9.59829C18.6651 9.12546 18.3812 8.65858 18.0873 8.19797C18.9807 8.31095 19.8367 8.4609 20.6405 8.64421C20.3992 9.41772 20.0984 10.2263 19.7444 11.0554C19.4856 10.5644 19.217 10.0786 18.9388 9.59829ZM14.0135 4.801C14.5651 5.39873 15.1177 6.06603 15.6612 6.79009C14.5587 6.73802 13.4543 6.7378 12.3518 6.78943C12.8959 6.07204 13.4531 5.40562 14.0135 4.801ZM9.05647 9.60639C8.78175 10.0828 8.51819 10.5656 8.26602 11.0543C7.91777 10.2282 7.61972 9.41586 7.37636 8.63142C8.17523 8.4527 9.02716 8.30657 9.91484 8.19567C9.61773 8.6591 9.33153 9.12954 9.05647 9.60639ZM9.94033 16.7542C9.02322 16.6518 8.1585 16.5132 7.35984 16.3393C7.60703 15.5409 7.91164 14.7112 8.26744 13.8674C8.52062 14.3565 8.78527 14.8396 9.06117 15.3162C9.34489 15.8062 9.63867 16.2861 9.94033 16.7542ZM14.0465 20.1481C13.4795 19.5364 12.914 18.8597 12.3618 18.132C12.8979 18.153 13.4445 18.1637 14 18.1637C14.5707 18.1637 15.1349 18.1509 15.6902 18.1262C15.1449 18.8671 14.5945 19.5447 14.0465 20.1481ZM19.7556 13.8243C20.1299 14.6774 20.4454 15.5027 20.6958 16.2875C19.884 16.4727 19.0075 16.6219 18.084 16.7327C18.3799 16.2636 18.6665 15.7886 18.9435 15.308C19.2252 14.8195 19.496 14.3249 19.7556 13.8243ZM17.9074 14.7104C17.4833 15.4471 17.0353 16.1699 16.5642 16.8776C15.7108 16.9381 14.8555 16.9681 14 16.9677C13.1286 16.9677 12.2811 16.9405 11.4649 16.8876C10.9815 16.1816 10.5249 15.4575 10.0963 14.7169C9.66961 13.9803 9.2712 13.2278 8.9017 12.4609C9.27027 11.6938 9.66758 10.9409 10.0928 10.2037L10.0927 10.2038C10.5177 9.46639 10.9706 8.74542 11.4504 8.04243C12.283 7.97943 13.1369 7.94662 13.9999 7.94662C14.8668 7.94662 15.7219 7.97976 16.5543 8.0432C17.0293 8.74514 17.4793 9.46363 17.9035 10.1973C18.3301 10.9329 18.7326 11.6822 19.1105 12.4439C18.7365 13.2134 18.3352 13.9694 17.9074 14.7104ZM20.3749 1.35306C21.3125 1.89381 21.6771 4.07442 21.088 6.93403C21.0503 7.11661 21.0083 7.30218 20.9623 7.49075C19.8005 7.22256 18.5391 7.02317 17.2184 6.89925C16.449 5.80364 15.6518 4.80756 14.8515 3.94525C15.0612 3.74307 15.276 3.54614 15.4955 3.35462C17.5627 1.55573 19.4947 0.84545 20.3749 1.35306ZM14 9.93211C15.3809 9.93211 16.5003 11.0516 16.5003 12.4324C16.5003 13.8133 15.3809 14.9327 14 14.9327C12.6191 14.9327 11.4997 13.8133 11.4997 12.4324C11.4997 11.0516 12.6191 9.93211 14 9.93211Z" fill="#00D8FF"/>
</svg>
